<svg width="190" height="53" viewBox="0 0 190 53" fill="none" xmlns="http://www.w3.org/2000/svg">
<path d="M42.6484 8.79297C41.6914 8.75391 40.7246 8.70508 39.748 8.64648C38.7715 8.58789 37.7266 8.5293 36.6133 8.4707C35.5 8.41211 34.2695 8.36328 32.9219 8.32422C31.5938 8.28516 30.0898 8.26562 28.4102 8.26562C26.2617 8.26562 24.1816 8.32422 22.1699 8.44141C20.1582 8.53906 18.166 8.73438 16.1934 9.02734C14.2207 9.32031 12.248 9.73047 10.2754 10.2578C8.30273 10.7852 6.28125 11.4785 4.21094 12.3379C5.05078 14.6816 5.72461 16.9766 6.23242 19.2227C6.74023 21.4688 7.13086 23.6074 7.4043 25.6387C7.69727 27.6699 7.89258 29.5742 7.99023 31.3516C8.08789 33.1289 8.13672 34.7305 8.13672 36.1562C8.13672 37.5039 8.10742 38.6953 8.04883 39.7305C7.99023 40.7461 7.92188 41.5957 7.84375 42.2793C7.76562 43.0996 7.66797 43.8027 7.55078 44.3887C8.48828 42.1621 9.39648 39.8086 10.2754 37.3281C11.1738 34.8281 12.0234 32.3574 12.8242 29.916C13.625 27.4551 14.3672 25.082 15.0508 22.7969C15.7344 20.5117 16.3301 18.4609 16.8379 16.6445C17.3652 14.8281 17.7949 13.3145 18.127 12.1035C18.459 10.873 18.6738 10.0918 18.7715 9.75977C19.2012 10.1113 19.7188 10.5605 20.3242 11.1074C20.9492 11.6543 21.5742 12.2207 22.1992 12.8066C22.8242 13.3926 23.4004 13.959 23.9277 14.5059C24.4746 15.0332 24.8945 15.4727 25.1875 15.8242C24.6992 17.6406 24.0547 19.6426 23.2539 21.8301C22.4531 24.0176 21.5645 26.2734 20.5879 28.5977C19.6309 30.9219 18.625 33.2559 17.5703 35.5996C16.5156 37.9238 15.4902 40.1309 14.4941 42.2207C13.498 44.3105 12.5703 46.2148 11.7109 47.9336C10.8711 49.6523 10.1777 51.0684 9.63086 52.1816C9.33789 51.8887 8.97656 51.4883 8.54688 50.9805C8.11719 50.4727 7.67773 49.9551 7.22852 49.4277C6.7793 48.9199 6.35938 48.4414 5.96875 47.9922C5.59766 47.543 5.32422 47.2207 5.14844 47.0254C5.1875 46.791 5.25586 46.3906 5.35352 45.8242C5.4707 45.2383 5.57813 44.5156 5.67578 43.6562C5.79297 42.7773 5.89062 41.7617 5.96875 40.6094C6.04688 39.457 6.08594 38.1777 6.08594 36.7715C6.08594 35.1699 6.01758 33.4512 5.88086 31.6152C5.74414 29.7598 5.4707 27.8359 5.06055 25.8438C4.66992 23.8516 4.10352 21.8008 3.36133 19.6914C2.61914 17.582 1.65234 15.4531 0.460938 13.3047C0.441406 13.3047 0.431641 13.2949 0.431641 13.2754C0.412109 13.2559 0.402344 13.207 0.402344 13.1289C0.402344 12.9336 0.470703 12.6699 0.607422 12.3379C0.744141 11.9863 0.919922 11.6152 1.13477 11.2246C1.36914 10.8145 1.61328 10.4141 1.86719 10.0234C2.14062 9.61328 2.39453 9.26172 2.62891 8.96875C2.72656 8.85156 3.19531 8.57813 4.03516 8.14844C4.875 7.69922 6.02734 7.17188 7.49219 6.56641C8.97656 5.96094 10.7344 5.31641 12.7656 4.63281C14.8164 3.94922 17.082 3.32422 19.5625 2.75781C22.043 2.17188 24.709 1.69336 27.5605 1.32227C30.4316 0.951172 33.4199 0.765625 36.5254 0.765625C36.6621 0.921875 36.877 1.18555 37.1699 1.55664C37.4824 1.9082 37.834 2.32812 38.2246 2.81641C38.6152 3.28516 39.0254 3.80273 39.4551 4.36914C39.9043 4.91602 40.334 5.46289 40.7441 6.00977C41.1543 6.53711 41.5254 7.04492 41.8574 7.5332C42.1895 8.02148 42.4531 8.44141 42.6484 8.79297ZM42.4727 43.4219C42.4727 43.5391 42.5312 43.5977 42.6484 43.5977C42.8242 43.5977 43.1172 43.4707 43.5273 43.2168C43.9375 42.9629 44.4062 42.6406 44.9336 42.25C45.4609 41.8594 46.0176 41.4199 46.6035 40.9316C47.209 40.4434 47.7852 39.9648 48.332 39.4961C48.8789 39.0273 49.3672 38.5977 49.7969 38.207C50.2461 37.8164 50.5879 37.5137 50.8223 37.2988C50.998 37.4746 51.2129 37.709 51.4668 38.002C51.7402 38.2949 51.9844 38.5586 52.1992 38.793C51.7305 39.2227 51.1641 39.75 50.5 40.375C49.8555 40.9805 49.1523 41.6152 48.3906 42.2793C47.6484 42.9434 46.877 43.6074 46.0762 44.2715C45.2754 44.916 44.4941 45.4922 43.7324 46C42.9707 46.5078 42.248 46.918 41.5645 47.2305C40.8809 47.5625 40.2852 47.7285 39.7773 47.7285C39.4258 47.7285 39.0352 47.6602 38.6055 47.5234C38.1953 47.3867 37.8145 47.1914 37.4629 46.9375C37.1113 46.7031 36.8184 46.4199 36.584 46.0879C36.3496 45.7559 36.2324 45.3848 36.2324 44.9746C36.2324 44.8184 36.2227 44.6328 36.2031 44.418C36.2031 44.1836 36.2227 43.8906 36.2617 43.5391C36.3008 43.168 36.3789 42.7285 36.4961 42.2207C36.6133 41.6934 36.7891 41.0488 37.0234 40.2871C36.3789 40.9707 35.6172 41.6836 34.7383 42.4258C33.8789 43.168 32.9707 43.8711 32.0137 44.5352C31.0566 45.1992 30.0898 45.7949 29.1133 46.3223C28.1562 46.8691 27.2676 47.2793 26.4473 47.5527C26.3496 47.5918 26.2715 47.6113 26.2129 47.6113C26.1543 47.6113 26.0957 47.6113 26.0371 47.6113C25.8418 47.6113 25.5879 47.5137 25.2754 47.3184C24.9434 47.123 24.6211 46.8594 24.3086 46.5273C23.9961 46.2148 23.7324 45.8535 23.5176 45.4434C23.2832 45.0332 23.166 44.623 23.166 44.2129C23.166 44.0957 23.2246 43.7051 23.3418 43.041C23.459 42.377 23.7422 41.5371 24.1914 40.5215C24.6211 39.4863 25.2656 38.334 26.125 37.0645C26.9844 35.7754 28.1562 34.457 29.6406 33.1094C30.4023 32.4258 31.2227 31.7812 32.1016 31.1758C32.8438 30.668 33.6934 30.1504 34.6504 29.623C35.6074 29.0957 36.6133 28.6758 37.668 28.3633C37.707 28.3633 37.7363 28.3535 37.7559 28.334C37.7949 28.3145 37.8438 28.3242 37.9023 28.3633C38.1367 28.4414 38.4102 28.5684 38.7227 28.7441C39.0547 28.9004 39.377 29.0762 39.6895 29.2715C40.0215 29.4473 40.3047 29.6328 40.5391 29.8281C40.793 30.0039 40.959 30.1504 41.0371 30.2676C41.0566 30.3066 41.0566 30.3359 41.0371 30.3555L40.9785 30.4141C40.0996 30.8828 39.2695 31.4102 38.4883 31.9961C37.707 32.5625 37.0137 33.0996 36.4082 33.6074C35.7051 34.2129 35.0508 34.8086 34.4453 35.3945C33.0195 36.8008 32.0332 38.0215 31.4863 39.0566C30.9395 40.0723 30.666 40.8047 30.666 41.2539C30.666 41.5859 30.8027 41.752 31.0762 41.752C31.3496 41.752 31.6914 41.6445 32.1016 41.4297C32.5312 41.1953 33.0098 40.8926 33.5371 40.5215C34.0645 40.1309 34.6406 39.6816 35.2656 39.1738C35.9102 38.6465 36.5742 38.0996 37.2578 37.5332C37.8633 37.0449 38.4492 36.5176 39.0156 35.9512C39.5039 35.4824 40.0117 34.9453 40.5391 34.3398C41.0664 33.7344 41.5156 33.1191 41.8867 32.4941C41.8867 32.4746 41.8965 32.4551 41.916 32.4355C41.9355 32.416 41.9648 32.416 42.0039 32.4355C42.2188 32.5918 42.4629 32.8555 42.7363 33.2266C43.0098 33.5781 43.2637 33.9688 43.498 34.3984C43.7324 34.8281 43.9277 35.248 44.084 35.6582C44.2598 36.0488 44.3477 36.3516 44.3477 36.5664C43.8984 37.4844 43.5469 38.3242 43.293 39.0859C43.0586 39.8281 42.873 40.4824 42.7363 41.0488C42.6191 41.6152 42.541 42.1035 42.502 42.5137C42.4824 42.9043 42.4727 43.207 42.4727 43.4219ZM50.207 37.9141C50.6562 37.4844 51.1738 36.9961 51.7598 36.4492C52.3262 35.9023 52.8926 35.3066 53.459 34.6621C54.0449 34.0176 54.582 33.3242 55.0703 32.582C55.5781 31.8398 55.9785 31.0391 56.2715 30.1797C56.3496 29.7305 56.4668 29.2617 56.623 28.7734C56.7988 28.2656 56.9844 27.8066 57.1797 27.3965C57.3945 26.9863 57.5996 26.6445 57.7949 26.3711C57.9902 26.0977 58.166 25.9609 58.3223 25.9609C58.5566 26.0977 58.9082 26.3613 59.377 26.752C59.8457 27.123 60.3145 27.5234 60.7832 27.9531C61.252 28.3828 61.6621 28.7832 62.0137 29.1543C62.3848 29.5059 62.5703 29.7207 62.5703 29.7988C62.3359 30.6973 62.2188 31.5078 62.2188 32.2305C62.2383 32.9531 62.2969 33.666 62.3945 34.3691C62.5117 35.0723 62.6289 35.8242 62.7461 36.625C62.8828 37.4062 62.9512 38.3145 62.9512 39.3496C62.9512 39.9746 62.8438 40.6973 62.6289 41.5176C62.4336 42.3184 62.082 43.041 61.5742 43.6855C62.5703 43.0996 63.5566 42.4453 64.5332 41.7227C65.5098 40.9805 66.3789 40.2871 67.1406 39.6426C68.0391 38.8809 68.8984 38.1191 69.7188 37.3574L71.0371 38.793C70.3926 39.3984 69.6895 40.043 68.9277 40.7266C68.1855 41.4102 67.4043 42.084 66.584 42.748C65.7832 43.4121 64.9629 44.0469 64.123 44.6523C63.2832 45.2578 62.4531 45.7949 61.6328 46.2637C60.8125 46.7324 60.0215 47.1035 59.2598 47.377C58.498 47.6504 57.7852 47.7871 57.1211 47.7871C56.5547 47.7871 55.9297 47.6504 55.2461 47.377C54.5625 47.1035 53.918 46.7715 53.3125 46.3809C52.707 45.9902 52.1797 45.5801 51.7305 45.1504C51.2812 44.7207 51.0176 44.3594 50.9395 44.0664C50.9395 44.0273 50.9785 43.9492 51.0566 43.832C51.1348 43.6953 51.2324 43.5586 51.3496 43.4219C51.4473 43.2852 51.5547 43.168 51.6719 43.0703C51.7695 42.9531 51.8477 42.8945 51.9062 42.8945C52.0234 42.8945 52.2578 42.9824 52.6094 43.1582C52.9609 43.334 53.5469 43.4219 54.3672 43.4219C54.8164 43.4219 55.1973 43.3047 55.5098 43.0703C55.8418 42.8359 56.1152 42.5234 56.3301 42.1328C56.5449 41.7422 56.7012 41.293 56.7988 40.7852C56.8965 40.2773 56.9453 39.7402 56.9453 39.1738C56.9453 38.3535 56.9062 37.5625 56.8281 36.8008C56.75 36.0195 56.6621 35.2676 56.5645 34.5449C56.2324 34.9355 55.8516 35.3457 55.4219 35.7754C54.9922 36.2051 54.5527 36.6348 54.1035 37.0645C53.6738 37.4746 53.2344 37.8848 52.7852 38.2949C52.3555 38.6855 51.9648 39.0371 51.6133 39.3496L50.207 37.9141ZM72.5605 47.6113C72.2285 47.6113 71.7891 47.4551 71.2422 47.1426C70.7148 46.8496 70.1973 46.4785 69.6895 46.0293C69.1816 45.5996 68.7422 45.1504 68.3711 44.6816C68 44.2129 67.8145 43.8125 67.8145 43.4805C67.8145 42.8945 67.9805 41.9668 68.3125 40.6973C68.625 39.4277 69.0449 37.9824 69.5723 36.3613C70.0996 34.7207 70.6953 32.9727 71.3594 31.1172C72.043 29.2617 72.7266 27.4453 73.4102 25.668H69.2793H69.25C69.2305 25.668 69.2207 25.6484 69.2207 25.6094C69.2207 25.4922 69.2695 25.3262 69.3672 25.1113C69.4453 24.877 69.5527 24.6426 69.6895 24.4082C69.8066 24.1543 69.9531 23.9297 70.1289 23.7344C70.2852 23.5195 70.4414 23.3828 70.5977 23.3242L74.4062 23.1484C74.9531 21.8203 75.4707 20.5996 75.959 19.4863C76.4668 18.3535 76.916 17.3867 77.3066 16.5859C77.4043 16.3711 77.502 16.1465 77.5996 15.9121C77.7168 15.6582 77.873 15.4141 78.0684 15.1797C78.2832 14.9258 78.5566 14.6719 78.8887 14.418C79.2402 14.1445 79.709 13.8711 80.2949 13.5977C80.7246 13.3828 81.2422 13.1484 81.8477 12.8945C82.4727 12.6406 83.0781 12.4062 83.6641 12.1914C84.2695 11.9766 84.8164 11.8008 85.3047 11.6641C85.793 11.5078 86.1445 11.4297 86.3594 11.4297C86.5547 11.4297 86.6523 11.4687 86.6523 11.5469V11.6055C86.6523 11.625 86.6328 11.6738 86.5938 11.752C86.4766 11.9473 86.2617 12.377 85.9492 13.041C85.6367 13.6855 85.2461 14.5059 84.7773 15.502C84.3281 16.4785 83.8203 17.6016 83.2539 18.8711C82.707 20.1211 82.1406 21.4492 81.5547 22.8555L88.5859 22.5918C88.7812 22.5918 88.8398 22.709 88.7617 22.9434C88.6836 23.1777 88.5371 23.4512 88.3223 23.7637C88.1074 24.0762 87.8535 24.3984 87.5605 24.7305C87.2871 25.0625 87.0527 25.3164 86.8574 25.4922C86.8184 25.5312 86.7402 25.5703 86.623 25.6094C86.5059 25.6484 86.3594 25.668 86.1836 25.668H80.3828C79.6797 27.3672 79.0059 29.0859 78.3613 30.8242C77.7168 32.5625 77.1406 34.2129 76.6328 35.7754C76.125 37.3379 75.7148 38.7734 75.4023 40.082C75.1094 41.3906 74.9629 42.4648 74.9629 43.3047C74.9629 43.4219 75.0215 43.4805 75.1387 43.4805C75.3535 43.4805 75.6758 43.3633 76.1055 43.1289C76.5352 42.875 77.0137 42.5527 77.541 42.1621C78.0879 41.7715 78.6641 41.3418 79.2695 40.873C79.875 40.4043 80.4512 39.9453 80.998 39.4961C81.5449 39.0273 82.0332 38.6074 82.4629 38.2363C82.9121 37.8457 83.2539 37.5527 83.4883 37.3574C83.6641 37.5332 83.8691 37.7578 84.1035 38.0312C84.3574 38.3047 84.5918 38.5586 84.8066 38.793C84.377 39.2227 83.8398 39.75 83.1953 40.375C82.5508 40.9805 81.8477 41.6055 81.0859 42.25C80.3438 42.8945 79.5625 43.5391 78.7422 44.1836C77.9414 44.8281 77.1504 45.4043 76.3691 45.9121C75.6074 46.4199 74.8945 46.8301 74.2305 47.1426C73.5664 47.4551 73.0098 47.6113 72.5605 47.6113ZM103.791 38.793C101.994 40.5508 100.295 42.0254 98.6934 43.2168C97.1113 44.4082 95.5977 45.3652 94.1523 46.0879C92.707 46.8105 91.3203 47.3281 89.9922 47.6406C88.6836 47.9531 87.4043 48.1094 86.1543 48.1094C85.627 48.1094 85.041 47.9141 84.3965 47.5234C83.752 47.1328 83.1562 46.6543 82.6094 46.0879C82.043 45.541 81.5742 44.9648 81.2031 44.3594C80.832 43.7539 80.6465 43.2363 80.6465 42.8066C80.6465 41.2051 80.8711 39.7402 81.3203 38.4121C81.75 37.0645 82.3262 35.8535 83.0488 34.7793C83.7715 33.7051 84.5918 32.7578 85.5098 31.9375C86.4473 31.1172 87.4141 30.4336 88.4102 29.8867C89.4258 29.3398 90.4316 28.9297 91.4277 28.6562C92.4238 28.3828 93.3418 28.2461 94.1816 28.2461C94.7871 28.2461 95.3828 28.4219 95.9688 28.7734C96.5742 29.125 97.1211 29.5547 97.6094 30.0625C98.0977 30.5703 98.4883 31.1074 98.7812 31.6738C99.0938 32.2207 99.25 32.6992 99.25 33.1094C99.25 33.7734 98.9668 34.457 98.4004 35.1602C97.8535 35.8438 97.0723 36.5469 96.0566 37.2695C95.041 37.9922 93.8203 38.7344 92.3945 39.4961C90.9688 40.2383 89.3965 40.9902 87.6777 41.752C87.6191 42.2207 87.5898 42.6797 87.5898 43.1289C87.5898 43.7344 87.7168 44.1445 87.9707 44.3594C88.2441 44.5742 88.7422 44.6816 89.4648 44.6816C90.7539 44.6816 91.9648 44.4668 93.0977 44.0371C94.25 43.6074 95.3535 43.0508 96.4082 42.3672C97.4629 41.6836 98.4785 40.9023 99.4551 40.0234C100.432 39.1445 101.398 38.2559 102.355 37.3574L103.791 38.793ZM93.4785 31.4688C93.0879 31.4688 92.6582 31.6836 92.1895 32.1133C91.7207 32.5234 91.252 33.0703 90.7832 33.7539C90.3145 34.4375 89.8652 35.2285 89.4355 36.127C89.0059 37.0059 88.6348 37.9238 88.3223 38.8809C89.0449 38.4121 89.748 37.9141 90.4316 37.3867C91.1348 36.8594 91.7598 36.3125 92.3066 35.7461C92.8535 35.1602 93.293 34.5645 93.625 33.959C93.957 33.3535 94.123 32.748 94.123 32.1426C94.123 31.9668 94.0645 31.8105 93.9473 31.6738C93.8496 31.5371 93.6934 31.4688 93.4785 31.4688ZM115.949 42.8066C115.793 42.8066 115.646 42.8066 115.51 42.8066C115.393 42.8066 115.266 42.7871 115.129 42.748C114.484 43.4316 113.791 44.0762 113.049 44.6816C112.326 45.2676 111.594 45.7754 110.852 46.2051C110.109 46.6543 109.377 46.9961 108.654 47.2305C107.951 47.4844 107.277 47.6113 106.633 47.6113C106.027 47.6113 105.393 47.3965 104.729 46.9668C104.084 46.5371 103.488 46.0293 102.941 45.4434C102.395 44.8379 101.945 44.2227 101.594 43.5977C101.242 42.9727 101.066 42.4746 101.066 42.1035C101.066 41.1855 101.174 39.9551 101.389 38.4121C101.604 36.8496 101.984 35.082 102.531 33.1094C103.078 31.1172 103.82 28.9688 104.758 26.6641C105.715 24.3594 106.926 22.0059 108.391 19.6035C110.324 16.4395 112.18 13.8613 113.957 11.8691C115.754 9.87695 117.385 8.31445 118.85 7.18164C120.334 6.0293 121.633 5.21875 122.746 4.75C123.859 4.26172 124.709 3.94922 125.295 3.8125C125.725 3.8125 126.193 3.92969 126.701 4.16406C127.229 4.37891 127.727 4.68164 128.195 5.07227C128.684 5.44336 129.123 5.87305 129.514 6.36133C129.904 6.83008 130.178 7.31836 130.334 7.82617C130.1 9.19336 129.641 10.5801 128.957 11.9863C128.293 13.373 127.463 14.7793 126.467 16.2051C125.49 17.6113 124.367 19.0371 123.098 20.4824C121.828 21.9277 120.461 23.3828 118.996 24.8477C117.531 26.293 115.998 27.7383 114.396 29.1836C112.814 30.6289 111.203 32.0742 109.562 33.5195C109.27 34.4961 109.006 35.4336 108.771 36.332C108.537 37.2305 108.332 38.0605 108.156 38.8223C108 39.584 107.873 40.2578 107.775 40.8438C107.697 41.4102 107.658 41.8691 107.658 42.2207C107.658 42.7676 107.697 43.1387 107.775 43.334C107.854 43.5098 108.02 43.5977 108.273 43.5977C108.527 43.5977 108.82 43.5 109.152 43.3047C109.504 43.0898 109.865 42.8066 110.236 42.4551C110.607 42.1035 110.988 41.7031 111.379 41.2539C111.77 40.7852 112.141 40.2969 112.492 39.7891C112.473 39.6523 112.463 39.5254 112.463 39.4082C112.463 39.291 112.463 39.1836 112.463 39.0859C112.463 38.3438 112.58 37.6113 112.814 36.8887C113.049 36.166 113.352 35.4824 113.723 34.8379C114.094 34.1934 114.504 33.5879 114.953 33.0215C115.422 32.4551 115.891 31.9473 116.359 31.498C116.594 31.6738 116.828 31.9082 117.062 32.2012C117.316 32.4941 117.561 32.8359 117.795 33.2266C118.049 33.5977 118.283 33.9883 118.498 34.3984C118.732 34.8086 118.957 35.2188 119.172 35.6289C119.074 36.3711 118.84 37.1426 118.469 37.9434C118.117 38.7441 117.658 39.5449 117.092 40.3457H117.209C117.873 40.3457 118.508 40.2969 119.113 40.1992C119.719 40.082 120.305 39.8965 120.871 39.6426C121.457 39.3691 122.033 39.0176 122.6 38.5879C123.166 38.1387 123.742 37.5918 124.328 36.9473C124.523 37.123 124.758 37.3672 125.031 37.6797C125.305 37.9727 125.539 38.2266 125.734 38.4414C124.914 39.3008 124.104 40.0137 123.303 40.5801C122.502 41.127 121.701 41.5664 120.9 41.8984C120.1 42.2305 119.289 42.4648 118.469 42.6016C117.668 42.7383 116.828 42.8066 115.949 42.8066ZM114.367 21.2734C113.859 22.2109 113.361 23.2363 112.873 24.3496C112.385 25.4629 111.916 26.6348 111.467 27.8652C113.596 25.7949 115.578 23.7539 117.414 21.7422C119.25 19.7109 120.832 17.8164 122.16 16.0586C123.488 14.3008 124.533 12.7188 125.295 11.3125C126.057 9.88672 126.438 8.72461 126.438 7.82617C126.438 7.55273 126.34 7.41602 126.145 7.41602C125.852 7.41602 125.354 7.63086 124.65 8.06055C123.947 8.4707 123.078 9.20312 122.043 10.2578C121.027 11.293 119.865 12.709 118.557 14.5059C117.268 16.2832 115.871 18.5391 114.367 21.2734ZM125.852 47.6113C125.559 47.6113 125.188 47.5039 124.738 47.2891C124.289 47.0938 123.859 46.8398 123.449 46.5273C123.039 46.2344 122.688 45.9023 122.395 45.5312C122.102 45.1602 121.955 44.7988 121.955 44.4473C122.15 43.5879 122.414 42.6016 122.746 41.4883C123.078 40.375 123.439 39.2422 123.83 38.0898C124.201 36.9375 124.602 35.8145 125.031 34.7207C125.441 33.6074 125.812 32.6211 126.145 31.7617C126.496 30.9023 126.799 30.209 127.053 29.6816C127.307 29.1543 127.473 28.8906 127.551 28.8906C127.668 28.8906 127.961 29.0176 128.43 29.2715C128.898 29.5254 129.387 29.8379 129.895 30.209C130.422 30.5605 130.891 30.9414 131.301 31.3516C131.711 31.7422 131.916 32.084 131.916 32.377C131.916 32.4355 131.906 32.5137 131.887 32.6113C131.867 32.6895 131.838 32.7969 131.799 32.9336C131.643 33.4219 131.438 33.998 131.184 34.6621C130.949 35.3262 130.695 36.0195 130.422 36.7422C130.148 37.4453 129.875 38.1582 129.602 38.8809C129.328 39.584 129.084 40.248 128.869 40.873C128.654 41.498 128.479 42.0449 128.342 42.5137C128.205 42.9824 128.137 43.3242 128.137 43.5391C128.137 43.6562 128.195 43.7148 128.312 43.7148C128.527 43.7148 128.85 43.5879 129.279 43.334C129.709 43.0801 130.197 42.748 130.744 42.3379C131.311 41.9277 131.896 41.4785 132.502 40.9902C133.107 40.502 133.684 40.0234 134.23 39.5547C134.797 39.0664 135.305 38.627 135.754 38.2363C136.203 37.8457 136.545 37.5527 136.779 37.3574C136.955 37.5332 137.16 37.7578 137.395 38.0312C137.648 38.3047 137.883 38.5586 138.098 38.793C137.668 39.2227 137.131 39.75 136.486 40.375C135.842 40.9805 135.139 41.6055 134.377 42.25C133.635 42.8945 132.854 43.5391 132.033 44.1836C131.232 44.8281 130.451 45.4043 129.689 45.9121C128.928 46.4199 128.215 46.8301 127.551 47.1426C126.887 47.4551 126.32 47.6113 125.852 47.6113ZM137.453 19.9551C137.434 20.0332 137.355 20.2285 137.219 20.541C137.102 20.834 136.955 21.1855 136.779 21.5957C136.604 21.9863 136.398 22.4062 136.164 22.8555C135.949 23.2852 135.734 23.6855 135.52 24.0566C135.305 24.4277 135.1 24.7402 134.904 24.9941C134.709 25.2285 134.553 25.3457 134.436 25.3457C134.084 25.3262 133.654 25.2188 133.146 25.0234C132.658 24.8281 132.18 24.6133 131.711 24.3789C131.262 24.125 130.871 23.8809 130.539 23.6465C130.227 23.4121 130.07 23.2461 130.07 23.1484C130.07 22.7383 130.188 22.2109 130.422 21.5664C130.656 20.9023 130.93 20.2676 131.242 19.6621C131.555 19.0371 131.867 18.5 132.18 18.0508C132.512 17.6016 132.766 17.377 132.941 17.377C133.293 17.377 133.723 17.4941 134.23 17.7285C134.738 17.9434 135.227 18.1973 135.695 18.4902C136.184 18.7832 136.594 19.0762 136.926 19.3691C137.277 19.6426 137.453 19.8379 137.453 19.9551ZM139.357 47.6113C139.025 47.6113 138.586 47.4551 138.039 47.1426C137.512 46.8496 136.994 46.4785 136.486 46.0293C135.979 45.5996 135.539 45.1504 135.168 44.6816C134.797 44.2129 134.611 43.8125 134.611 43.4805C134.611 42.8945 134.777 41.9668 135.109 40.6973C135.422 39.4277 135.842 37.9824 136.369 36.3613C136.896 34.7207 137.492 32.9727 138.156 31.1172C138.84 29.2617 139.523 27.4453 140.207 25.668H136.076H136.047C136.027 25.668 136.018 25.6484 136.018 25.6094C136.018 25.4922 136.066 25.3262 136.164 25.1113C136.242 24.877 136.35 24.6426 136.486 24.4082C136.604 24.1543 136.75 23.9297 136.926 23.7344C137.082 23.5195 137.238 23.3828 137.395 23.3242L141.203 23.1484C141.75 21.8203 142.268 20.5996 142.756 19.4863C143.264 18.3535 143.713 17.3867 144.104 16.5859C144.201 16.3711 144.299 16.1465 144.396 15.9121C144.514 15.6582 144.67 15.4141 144.865 15.1797C145.08 14.9258 145.354 14.6719 145.686 14.418C146.037 14.1445 146.506 13.8711 147.092 13.5977C147.521 13.3828 148.039 13.1484 148.645 12.8945C149.27 12.6406 149.875 12.4062 150.461 12.1914C151.066 11.9766 151.613 11.8008 152.102 11.6641C152.59 11.5078 152.941 11.4297 153.156 11.4297C153.352 11.4297 153.449 11.4687 153.449 11.5469V11.6055C153.449 11.625 153.43 11.6738 153.391 11.752C153.273 11.9473 153.059 12.377 152.746 13.041C152.434 13.6855 152.043 14.5059 151.574 15.502C151.125 16.4785 150.617 17.6016 150.051 18.8711C149.504 20.1211 148.938 21.4492 148.352 22.8555L155.383 22.5918C155.578 22.5918 155.637 22.709 155.559 22.9434C155.48 23.1777 155.334 23.4512 155.119 23.7637C154.904 24.0762 154.65 24.3984 154.357 24.7305C154.084 25.0625 153.85 25.3164 153.654 25.4922C153.615 25.5312 153.537 25.5703 153.42 25.6094C153.303 25.6484 153.156 25.668 152.98 25.668H147.18C146.477 27.3672 145.803 29.0859 145.158 30.8242C144.514 32.5625 143.938 34.2129 143.43 35.7754C142.922 37.3379 142.512 38.7734 142.199 40.082C141.906 41.3906 141.76 42.4648 141.76 43.3047C141.76 43.4219 141.818 43.4805 141.936 43.4805C142.15 43.4805 142.473 43.3633 142.902 43.1289C143.332 42.875 143.811 42.5527 144.338 42.1621C144.885 41.7715 145.461 41.3418 146.066 40.873C146.672 40.4043 147.248 39.9453 147.795 39.4961C148.342 39.0273 148.83 38.6074 149.26 38.2363C149.709 37.8457 150.051 37.5527 150.285 37.3574C150.461 37.5332 150.666 37.7578 150.9 38.0312C151.154 38.3047 151.389 38.5586 151.604 38.793C151.174 39.2227 150.637 39.75 149.992 40.375C149.348 40.9805 148.645 41.6055 147.883 42.25C147.141 42.8945 146.359 43.5391 145.539 44.1836C144.738 44.8281 143.947 45.4043 143.166 45.9121C142.404 46.4199 141.691 46.8301 141.027 47.1426C140.363 47.4551 139.807 47.6113 139.357 47.6113ZM170.588 38.793C168.791 40.5508 167.092 42.0254 165.49 43.2168C163.908 44.4082 162.395 45.3652 160.949 46.0879C159.504 46.8105 158.117 47.3281 156.789 47.6406C155.48 47.9531 154.201 48.1094 152.951 48.1094C152.424 48.1094 151.838 47.9141 151.193 47.5234C150.549 47.1328 149.953 46.6543 149.406 46.0879C148.84 45.541 148.371 44.9648 148 44.3594C147.629 43.7539 147.443 43.2363 147.443 42.8066C147.443 41.2051 147.668 39.7402 148.117 38.4121C148.547 37.0645 149.123 35.8535 149.846 34.7793C150.568 33.7051 151.389 32.7578 152.307 31.9375C153.244 31.1172 154.211 30.4336 155.207 29.8867C156.223 29.3398 157.229 28.9297 158.225 28.6562C159.221 28.3828 160.139 28.2461 160.979 28.2461C161.584 28.2461 162.18 28.4219 162.766 28.7734C163.371 29.125 163.918 29.5547 164.406 30.0625C164.895 30.5703 165.285 31.1074 165.578 31.6738C165.891 32.2207 166.047 32.6992 166.047 33.1094C166.047 33.7734 165.764 34.457 165.197 35.1602C164.65 35.8438 163.869 36.5469 162.854 37.2695C161.838 37.9922 160.617 38.7344 159.191 39.4961C157.766 40.2383 156.193 40.9902 154.475 41.752C154.416 42.2207 154.387 42.6797 154.387 43.1289C154.387 43.7344 154.514 44.1445 154.768 44.3594C155.041 44.5742 155.539 44.6816 156.262 44.6816C157.551 44.6816 158.762 44.4668 159.895 44.0371C161.047 43.6074 162.15 43.0508 163.205 42.3672C164.26 41.6836 165.275 40.9023 166.252 40.0234C167.229 39.1445 168.195 38.2559 169.152 37.3574L170.588 38.793ZM160.275 31.4688C159.885 31.4688 159.455 31.6836 158.986 32.1133C158.518 32.5234 158.049 33.0703 157.58 33.7539C157.111 34.4375 156.662 35.2285 156.232 36.127C155.803 37.0059 155.432 37.9238 155.119 38.8809C155.842 38.4121 156.545 37.9141 157.229 37.3867C157.932 36.8594 158.557 36.3125 159.104 35.7461C159.65 35.1602 160.09 34.5645 160.422 33.959C160.754 33.3535 160.92 32.748 160.92 32.1426C160.92 31.9668 160.861 31.8105 160.744 31.6738C160.646 31.5371 160.49 31.4688 160.275 31.4688ZM168.625 37.9141C169.074 37.4844 169.592 36.9961 170.178 36.4492C170.744 35.9023 171.311 35.3066 171.877 34.6621C172.463 34.0176 173 33.3242 173.488 32.582C173.996 31.8398 174.396 31.0391 174.689 30.1797C174.768 29.7305 174.885 29.2617 175.041 28.7734C175.217 28.2656 175.402 27.8066 175.598 27.3965C175.812 26.9863 176.018 26.6445 176.213 26.3711C176.408 26.0977 176.584 25.9609 176.74 25.9609C176.975 26.0977 177.326 26.3613 177.795 26.752C178.264 27.123 178.732 27.5234 179.201 27.9531C179.67 28.3828 180.08 28.7832 180.432 29.1543C180.803 29.5059 180.988 29.7207 180.988 29.7988C180.754 30.6973 180.637 31.5078 180.637 32.2305C180.656 32.9531 180.715 33.666 180.812 34.3691C180.93 35.0723 181.047 35.8242 181.164 36.625C181.301 37.4062 181.369 38.3145 181.369 39.3496C181.369 39.9746 181.262 40.6973 181.047 41.5176C180.852 42.3184 180.5 43.041 179.992 43.6855C180.988 43.0996 181.975 42.4453 182.951 41.7227C183.928 40.9805 184.797 40.2871 185.559 39.6426C186.457 38.8809 187.316 38.1191 188.137 37.3574L189.455 38.793C188.811 39.3984 188.107 40.043 187.346 40.7266C186.604 41.4102 185.822 42.084 185.002 42.748C184.201 43.4121 183.381 44.0469 182.541 44.6523C181.701 45.2578 180.871 45.7949 180.051 46.2637C179.23 46.7324 178.439 47.1035 177.678 47.377C176.916 47.6504 176.203 47.7871 175.539 47.7871C174.973 47.7871 174.348 47.6504 173.664 47.377C172.98 47.1035 172.336 46.7715 171.73 46.3809C171.125 45.9902 170.598 45.5801 170.148 45.1504C169.699 44.7207 169.436 44.3594 169.357 44.0664C169.357 44.0273 169.396 43.9492 169.475 43.832C169.553 43.6953 169.65 43.5586 169.768 43.4219C169.865 43.2852 169.973 43.168 170.09 43.0703C170.188 42.9531 170.266 42.8945 170.324 42.8945C170.441 42.8945 170.676 42.9824 171.027 43.1582C171.379 43.334 171.965 43.4219 172.785 43.4219C173.234 43.4219 173.615 43.3047 173.928 43.0703C174.26 42.8359 174.533 42.5234 174.748 42.1328C174.963 41.7422 175.119 41.293 175.217 40.7852C175.314 40.2773 175.363 39.7402 175.363 39.1738C175.363 38.3535 175.324 37.5625 175.246 36.8008C175.168 36.0195 175.08 35.2676 174.982 34.5449C174.65 34.9355 174.27 35.3457 173.84 35.7754C173.41 36.2051 172.971 36.6348 172.521 37.0645C172.092 37.4746 171.652 37.8848 171.203 38.2949C170.773 38.6855 170.383 39.0371 170.031 39.3496L168.625 37.9141Z" fill="black"/>
</svg>
